<mxfile host="app.diagrams.net" modified="2022-07-23T03:15:17.685Z" agent="5.0 (Windows NT 10.0; Win64; x64) AppleWebKit/537.36 (KHTML, like Gecko) Chrome/97.0.4692.99 Safari/537.36" etag="wpNTtHCFI2GtMy-aNirI" version="20.1.4" type="github">
  <diagram id="oq6hrw9S_HHkJ7rgiVis" name="第 1 页">
    <mxGraphModel dx="1221" dy="681" grid="1" gridSize="10" guides="1" tooltips="1" connect="1" arrows="1" fold="1" page="1" pageScale="1" pageWidth="827" pageHeight="1169" math="0" shadow="0">
      <root>
        <mxCell id="0" />
        <mxCell id="1" parent="0" />
        <mxCell id="B7hxLKYfM9Hw6C9PJnHp-2" value="" style="rounded=0;whiteSpace=wrap;html=1;" vertex="1" parent="1">
          <mxGeometry x="90" y="110" width="690" height="190" as="geometry" />
        </mxCell>
        <mxCell id="B7hxLKYfM9Hw6C9PJnHp-3" value="&lt;b&gt;平台无关&lt;/b&gt;" style="rounded=1;whiteSpace=wrap;html=1;" vertex="1" parent="1">
          <mxGeometry x="110" y="164" width="80" height="110" as="geometry" />
        </mxCell>
        <mxCell id="B7hxLKYfM9Hw6C9PJnHp-7" value="&lt;b&gt;&lt;font style=&quot;font-size: 19px;&quot;&gt;core 核心层&lt;/font&gt;&lt;/b&gt;" style="rounded=1;whiteSpace=wrap;html=1;strokeColor=#FFFFFF;" vertex="1" parent="1">
          <mxGeometry x="100" y="120" width="110" height="40" as="geometry" />
        </mxCell>
        <mxCell id="B7hxLKYfM9Hw6C9PJnHp-24" value="" style="rounded=1;whiteSpace=wrap;html=1;fontSize=19;strokeColor=#000000;labelBackgroundColor=none;" vertex="1" parent="1">
          <mxGeometry x="250" y="169" width="470" height="100" as="geometry" />
        </mxCell>
        <mxCell id="B7hxLKYfM9Hw6C9PJnHp-26" value="&lt;b&gt;生命周期管理&lt;/b&gt;" style="rounded=1;whiteSpace=wrap;html=1;" vertex="1" parent="1">
          <mxGeometry x="293" y="183.5" width="61" height="75" as="geometry" />
        </mxCell>
        <mxCell id="B7hxLKYfM9Hw6C9PJnHp-27" value="&lt;b&gt;配置管理&lt;/b&gt;" style="rounded=1;whiteSpace=wrap;html=1;" vertex="1" parent="1">
          <mxGeometry x="390" y="183.5" width="61" height="75" as="geometry" />
        </mxCell>
        <mxCell id="B7hxLKYfM9Hw6C9PJnHp-28" value="&lt;b&gt;平台无关功能&lt;/b&gt;" style="rounded=1;whiteSpace=wrap;html=1;" vertex="1" parent="1">
          <mxGeometry x="590" y="181.5" width="61" height="75" as="geometry" />
        </mxCell>
        <mxCell id="B7hxLKYfM9Hw6C9PJnHp-32" value="&lt;b&gt;插件管理&lt;/b&gt;" style="rounded=1;whiteSpace=wrap;html=1;" vertex="1" parent="1">
          <mxGeometry x="490" y="181.5" width="61" height="75" as="geometry" />
        </mxCell>
        <mxCell id="B7hxLKYfM9Hw6C9PJnHp-33" value="" style="rounded=0;whiteSpace=wrap;html=1;" vertex="1" parent="1">
          <mxGeometry x="90" y="330" width="690" height="190" as="geometry" />
        </mxCell>
        <mxCell id="B7hxLKYfM9Hw6C9PJnHp-34" value="&lt;b&gt;平台相关&lt;/b&gt;" style="rounded=1;whiteSpace=wrap;html=1;" vertex="1" parent="1">
          <mxGeometry x="110" y="384" width="80" height="110" as="geometry" />
        </mxCell>
        <mxCell id="B7hxLKYfM9Hw6C9PJnHp-35" value="&lt;b style=&quot;font-size: 19px;&quot;&gt;SDK&lt;/b&gt;" style="rounded=1;whiteSpace=wrap;html=1;strokeColor=#FFFFFF;" vertex="1" parent="1">
          <mxGeometry x="100" y="334" width="90" height="36" as="geometry" />
        </mxCell>
        <mxCell id="B7hxLKYfM9Hw6C9PJnHp-36" value="" style="rounded=1;whiteSpace=wrap;html=1;fontSize=19;strokeColor=#000000;labelBackgroundColor=none;" vertex="1" parent="1">
          <mxGeometry x="250" y="389" width="470" height="100" as="geometry" />
        </mxCell>
        <mxCell id="B7hxLKYfM9Hw6C9PJnHp-37" value="&lt;b&gt;web&lt;/b&gt;" style="rounded=1;whiteSpace=wrap;html=1;" vertex="1" parent="1">
          <mxGeometry x="293" y="403.5" width="61" height="75" as="geometry" />
        </mxCell>
        <mxCell id="B7hxLKYfM9Hw6C9PJnHp-38" value="&lt;b&gt;RN&lt;/b&gt;" style="rounded=1;whiteSpace=wrap;html=1;" vertex="1" parent="1">
          <mxGeometry x="390" y="403.5" width="61" height="75" as="geometry" />
        </mxCell>
        <mxCell id="B7hxLKYfM9Hw6C9PJnHp-39" value="&lt;b&gt;...&lt;/b&gt;" style="rounded=1;whiteSpace=wrap;html=1;" vertex="1" parent="1">
          <mxGeometry x="590" y="401.5" width="61" height="75" as="geometry" />
        </mxCell>
        <mxCell id="B7hxLKYfM9Hw6C9PJnHp-40" value="&lt;b&gt;Node&lt;/b&gt;" style="rounded=1;whiteSpace=wrap;html=1;" vertex="1" parent="1">
          <mxGeometry x="490" y="401.5" width="61" height="75" as="geometry" />
        </mxCell>
        <mxCell id="B7hxLKYfM9Hw6C9PJnHp-41" value="" style="rounded=0;whiteSpace=wrap;html=1;" vertex="1" parent="1">
          <mxGeometry x="90" y="560" width="690" height="190" as="geometry" />
        </mxCell>
        <mxCell id="B7hxLKYfM9Hw6C9PJnHp-42" value="&lt;b&gt;数据采集&lt;/b&gt;" style="rounded=1;whiteSpace=wrap;html=1;" vertex="1" parent="1">
          <mxGeometry x="110" y="614" width="80" height="110" as="geometry" />
        </mxCell>
        <mxCell id="B7hxLKYfM9Hw6C9PJnHp-43" value="&lt;span style=&quot;font-size: 19px;&quot;&gt;&lt;b&gt;插件系统&lt;/b&gt;&lt;/span&gt;" style="rounded=1;whiteSpace=wrap;html=1;strokeColor=#FFFFFF;" vertex="1" parent="1">
          <mxGeometry x="102.5" y="567" width="95" height="36" as="geometry" />
        </mxCell>
        <mxCell id="B7hxLKYfM9Hw6C9PJnHp-44" value="" style="rounded=1;whiteSpace=wrap;html=1;fontSize=19;strokeColor=#000000;labelBackgroundColor=none;" vertex="1" parent="1">
          <mxGeometry x="210" y="619" width="210" height="91" as="geometry" />
        </mxCell>
        <mxCell id="B7hxLKYfM9Hw6C9PJnHp-45" value="&lt;b&gt;测速&lt;/b&gt;" style="rounded=1;whiteSpace=wrap;html=1;" vertex="1" parent="1">
          <mxGeometry x="220" y="627" width="40" height="73" as="geometry" />
        </mxCell>
        <mxCell id="B7hxLKYfM9Hw6C9PJnHp-46" value="&lt;b&gt;页面性能&lt;/b&gt;" style="rounded=1;whiteSpace=wrap;html=1;" vertex="1" parent="1">
          <mxGeometry x="270" y="627" width="40" height="73" as="geometry" />
        </mxCell>
        <mxCell id="B7hxLKYfM9Hw6C9PJnHp-47" value="&lt;b&gt;...&lt;/b&gt;" style="rounded=1;whiteSpace=wrap;html=1;" vertex="1" parent="1">
          <mxGeometry x="370" y="626" width="40" height="74" as="geometry" />
        </mxCell>
        <mxCell id="B7hxLKYfM9Hw6C9PJnHp-48" value="&lt;b&gt;PV&lt;/b&gt;" style="rounded=1;whiteSpace=wrap;html=1;" vertex="1" parent="1">
          <mxGeometry x="320" y="626" width="40" height="74" as="geometry" />
        </mxCell>
        <mxCell id="B7hxLKYfM9Hw6C9PJnHp-50" value="&lt;b&gt;数据处理&lt;/b&gt;" style="rounded=1;whiteSpace=wrap;html=1;" vertex="1" parent="1">
          <mxGeometry x="440" y="609.5" width="80" height="110" as="geometry" />
        </mxCell>
        <mxCell id="B7hxLKYfM9Hw6C9PJnHp-59" value="" style="rounded=1;whiteSpace=wrap;html=1;fontSize=19;strokeColor=#000000;labelBackgroundColor=none;" vertex="1" parent="1">
          <mxGeometry x="540" y="617.5" width="210" height="91" as="geometry" />
        </mxCell>
        <mxCell id="B7hxLKYfM9Hw6C9PJnHp-60" value="&lt;b&gt;抽样&lt;/b&gt;" style="rounded=1;whiteSpace=wrap;html=1;" vertex="1" parent="1">
          <mxGeometry x="550" y="627" width="40" height="73" as="geometry" />
        </mxCell>
        <mxCell id="B7hxLKYfM9Hw6C9PJnHp-63" value="&lt;b&gt;离线存储&lt;/b&gt;" style="rounded=1;whiteSpace=wrap;html=1;" vertex="1" parent="1">
          <mxGeometry x="611" y="628" width="40" height="73" as="geometry" />
        </mxCell>
        <mxCell id="B7hxLKYfM9Hw6C9PJnHp-64" value="&lt;b&gt;...&lt;/b&gt;" style="rounded=1;whiteSpace=wrap;html=1;" vertex="1" parent="1">
          <mxGeometry x="680" y="627" width="40" height="73" as="geometry" />
        </mxCell>
      </root>
    </mxGraphModel>
  </diagram>
</mxfile>
